<svg xmlns="http://www.w3.org/2000/svg" width="239.739" height="36.856" viewBox="0 0 239.739 36.856">
  <g id="Brand" transform="translate(-0.633)">
    <path id="Path_3001" data-name="Path 3001" d="M-28.748-11.259a7.469,7.469,0,0,0-2.581-1.672,8.673,8.673,0,0,0-3.2-.59,7.988,7.988,0,0,0-3.114.59,6.885,6.885,0,0,0-2.426,1.688,7.72,7.72,0,0,0-1.573,2.614A9.753,9.753,0,0,0-42.2-5.244a9.969,9.969,0,0,0,.565,3.426A7.811,7.811,0,0,0-40.033.862a7.3,7.3,0,0,0,2.475,1.746,7.879,7.879,0,0,0,3.172.623,7.624,7.624,0,0,0,2.647-.443,6.537,6.537,0,0,0,2.123-1.262A6.787,6.787,0,0,0-28.1-.458a8.625,8.625,0,0,0,.828-2.606H-34.4V-6.915h11.572l.148,1.9a14.693,14.693,0,0,1-.86,5.13,11.74,11.74,0,0,1-2.434,4.007,10.86,10.86,0,0,1-3.745,2.6,12.237,12.237,0,0,1-4.811.918,13.13,13.13,0,0,1-5.073-.967,12.5,12.5,0,0,1-4.081-2.7A12.345,12.345,0,0,1-46.4-.105a13.087,13.087,0,0,1-.967-5.056,13.062,13.062,0,0,1,.959-5.04,12.409,12.409,0,0,1,2.688-4.057,12.382,12.382,0,0,1,4.04-2.7,12.905,12.905,0,0,1,5.032-.967,13.978,13.978,0,0,1,4.917.885,13.549,13.549,0,0,1,4.245,2.524ZM-14.832,7.148h-4.7V-9.243h4.1l.164,2.836a6.013,6.013,0,0,1,2.229-2.327,6.209,6.209,0,0,1,3.229-.836A7.7,7.7,0,0,1-8.76-9.5a9.184,9.184,0,0,1,1.09.221l-.59,4.229a7.414,7.414,0,0,0-2.049-.311,4.545,4.545,0,0,0-2.385.615,4.144,4.144,0,0,0-1.582,1.7A5.528,5.528,0,0,0-14.832-.49ZM9.573,5.312A11.281,11.281,0,0,1,2.9,7.475,9.991,9.991,0,0,1-1.925,6.32,8.861,8.861,0,0,1-5.3,3.181,8.278,8.278,0,0,1-6.539-1.293,8.08,8.08,0,0,1-5.416-5.539a8.13,8.13,0,0,1,3.057-2.95A8.843,8.843,0,0,1,2.033-9.571,8.373,8.373,0,0,1,6.508-8.382,8.12,8.12,0,0,1,9.524-5.071,10.667,10.667,0,0,1,10.606-.163V.362H-1.474a4.338,4.338,0,0,0,.967,1.7A4.79,4.79,0,0,0,1.165,3.214a5.807,5.807,0,0,0,2.295.426A7.632,7.632,0,0,0,8.131,2.017ZM-1.687-2.031H6.262A4.332,4.332,0,0,0,5.6-3.908a3.753,3.753,0,0,0-1.393-1.27,4.027,4.027,0,0,0-1.926-.459,3.857,3.857,0,0,0-1.926.475A3.889,3.889,0,0,0-1.015-3.883,4.481,4.481,0,0,0-1.687-2.031ZM19.62,7.148h-4.7V-5.047H12.048v-4.2h2.868V-11.8a5.985,5.985,0,0,1,.836-3.155,5.938,5.938,0,0,1,2.3-2.18,6.888,6.888,0,0,1,3.335-.795,9.114,9.114,0,0,1,2.409.336,9.6,9.6,0,0,1,2.426,1.057l-1.787,3.655a3.7,3.7,0,0,0-1.106-.631,3.462,3.462,0,0,0-1.156-.2,2.445,2.445,0,0,0-1.819.754,2.849,2.849,0,0,0-.738,2.082v1.639h4.9v4.2h-4.9Zm16.521.328a9.186,9.186,0,0,1-4.524-1.106,8.169,8.169,0,0,1-3.139-3.032A8.448,8.448,0,0,1,27.34-1.048a8.416,8.416,0,0,1,1.139-4.368,8.229,8.229,0,0,1,3.139-3.04,9.132,9.132,0,0,1,4.524-1.115,8.994,8.994,0,0,1,4.5,1.115,8.279,8.279,0,0,1,3.114,3.04,8.416,8.416,0,0,1,1.139,4.368,8.447,8.447,0,0,1-1.139,4.384,8.218,8.218,0,0,1-3.114,3.032A9.047,9.047,0,0,1,36.142,7.475Zm-.016-4.212A3.7,3.7,0,0,0,38.149,2.7a4,4,0,0,0,1.41-1.541,4.71,4.71,0,0,0,.516-2.237,4.555,4.555,0,0,0-.516-2.18,4.015,4.015,0,0,0-1.41-1.532,3.7,3.7,0,0,0-2.024-.565,3.733,3.733,0,0,0-2.041.565,4.015,4.015,0,0,0-1.41,1.532,4.555,4.555,0,0,0-.516,2.18,4.71,4.71,0,0,0,.516,2.237A4,4,0,0,0,34.085,2.7,3.733,3.733,0,0,0,36.125,3.263ZM55.663,7.475a9.186,9.186,0,0,1-4.524-1.106A8.169,8.169,0,0,1,48,3.337a8.447,8.447,0,0,1-1.139-4.384A8.416,8.416,0,0,1,48-5.416a8.229,8.229,0,0,1,3.139-3.04,9.132,9.132,0,0,1,4.524-1.115,8.994,8.994,0,0,1,4.5,1.115,8.279,8.279,0,0,1,3.114,3.04,8.416,8.416,0,0,1,1.139,4.368,8.447,8.447,0,0,1-1.139,4.384,8.218,8.218,0,0,1-3.114,3.032A9.047,9.047,0,0,1,55.663,7.475Zm-.016-4.212A3.7,3.7,0,0,0,57.67,2.7a4,4,0,0,0,1.41-1.541A4.71,4.71,0,0,0,59.6-1.08a4.555,4.555,0,0,0-.516-2.18,4.015,4.015,0,0,0-1.41-1.532,3.7,3.7,0,0,0-2.024-.565,3.734,3.734,0,0,0-2.041.565A4.015,4.015,0,0,0,52.2-3.26a4.555,4.555,0,0,0-.516,2.18A4.71,4.71,0,0,0,52.2,1.157,4,4,0,0,0,53.606,2.7,3.733,3.733,0,0,0,55.646,3.263ZM84.28,7.148H80.15L79.9,4.918a7.706,7.706,0,0,1-2.516,1.869,7.448,7.448,0,0,1-3.2.688,7.377,7.377,0,0,1-4.007-1.106A7.786,7.786,0,0,1,67.4,3.329a9.265,9.265,0,0,1-1.016-4.376A9.252,9.252,0,0,1,67.4-5.432a7.8,7.8,0,0,1,2.778-3.032,7.377,7.377,0,0,1,4.007-1.106,7.644,7.644,0,0,1,2.991.582,7.291,7.291,0,0,1,2.4,1.614V-17.438h4.7ZM75.4,3.263A4.257,4.257,0,0,0,77.5,2.739,4.085,4.085,0,0,0,79.011,1.3a3.846,3.846,0,0,0,.565-2.073v-.59a3.8,3.8,0,0,0-.565-2.065A4.042,4.042,0,0,0,77.5-4.842,4.311,4.311,0,0,0,75.4-5.358a4.166,4.166,0,0,0-2.147.557,4.04,4.04,0,0,0-1.5,1.532A4.448,4.448,0,0,0,71.2-1.048a4.415,4.415,0,0,0,.549,2.2,4.1,4.1,0,0,0,1.5,1.541A4.119,4.119,0,0,0,75.4,3.263Z" transform="translate(48 29.217)" fill="#23dc00"/>
    <path id="Path_3002" data-name="Path 3002" d="M-30.135,4.492-27.742.641a14.94,14.94,0,0,0,2.188,1.5,9.152,9.152,0,0,0,2.09.852,8.311,8.311,0,0,0,2.114.27A6.138,6.138,0,0,0-19.137,2.9,3.251,3.251,0,0,0-17.686,1.87,2.484,2.484,0,0,0-17.17.313a2.455,2.455,0,0,0-.656-1.737,5.989,5.989,0,0,0-1.713-1.237q-1.057-.533-2.286-1.024-1.2-.492-2.4-1.074a11.707,11.707,0,0,1-2.213-1.385A6.2,6.2,0,0,1-28.061-8.1a5.92,5.92,0,0,1-.615-2.811,6.4,6.4,0,0,1,1.09-3.737,7.054,7.054,0,0,1,2.991-2.426,10.516,10.516,0,0,1,4.343-.852,14.942,14.942,0,0,1,3.581.459,17.6,17.6,0,0,1,3.712,1.393L-14.941-12a11.026,11.026,0,0,0-2.508-1.115,8.675,8.675,0,0,0-2.524-.41,4.857,4.857,0,0,0-1.86.328,2.9,2.9,0,0,0-1.237.91,2.2,2.2,0,0,0-.443,1.369A2.278,2.278,0,0,0-22.874-9.3,6.019,6.019,0,0,0-21.21-8.1q1.024.524,2.2,1.049,1.213.524,2.45,1.147a12.086,12.086,0,0,1,2.262,1.467,6.709,6.709,0,0,1,1.655,2.016A5.852,5.852,0,0,1-12.007.395a6.427,6.427,0,0,1-1.147,3.794,7.539,7.539,0,0,1-3.2,2.541,11.662,11.662,0,0,1-4.77.91,14.24,14.24,0,0,1-4.77-.8A14.865,14.865,0,0,1-30.135,4.492ZM1.646,6.721a9.814,9.814,0,0,1-3.655.754A6.555,6.555,0,0,1-5.246,6.7a5.561,5.561,0,0,1-2.188-2.18A6.5,6.5,0,0,1-8.221,1.28V-5.047h-2.868v-4.2h3.114v-4.1h4.458v4.1h4.54v4.2h-4.54V.428a2.844,2.844,0,0,0,.738,2.09,2.478,2.478,0,0,0,1.836.746,3.518,3.518,0,0,0,1.95-.623Zm10.506.754A9.186,9.186,0,0,1,7.629,6.369,8.169,8.169,0,0,1,4.49,3.337,8.448,8.448,0,0,1,3.351-1.048,8.416,8.416,0,0,1,4.49-5.416a8.229,8.229,0,0,1,3.139-3.04,9.132,9.132,0,0,1,4.524-1.115,8.994,8.994,0,0,1,4.5,1.115,8.279,8.279,0,0,1,3.114,3.04A8.416,8.416,0,0,1,20.9-1.048a8.448,8.448,0,0,1-1.139,4.384,8.218,8.218,0,0,1-3.114,3.032A9.047,9.047,0,0,1,12.152,7.475Zm-.016-4.212A3.7,3.7,0,0,0,14.16,2.7a4,4,0,0,0,1.41-1.541,4.71,4.71,0,0,0,.516-2.237,4.555,4.555,0,0,0-.516-2.18,4.015,4.015,0,0,0-1.41-1.532,3.7,3.7,0,0,0-2.024-.565,3.733,3.733,0,0,0-2.041.565A4.015,4.015,0,0,0,8.686-3.26a4.555,4.555,0,0,0-.516,2.18,4.71,4.71,0,0,0,.516,2.237A4,4,0,0,0,10.1,2.7,3.733,3.733,0,0,0,12.136,3.263ZM28.592,7.148h-4.7V-9.243h4.1l.164,2.836a6.013,6.013,0,0,1,2.229-2.327,6.209,6.209,0,0,1,3.229-.836,7.7,7.7,0,0,1,1.057.074,9.184,9.184,0,0,1,1.09.221l-.59,4.229a7.414,7.414,0,0,0-2.049-.311,4.545,4.545,0,0,0-2.385.615,4.144,4.144,0,0,0-1.582,1.7A5.528,5.528,0,0,0,28.592-.49ZM53,5.312a11.281,11.281,0,0,1-6.671,2.164A9.991,9.991,0,0,1,41.5,6.32a8.861,8.861,0,0,1-3.376-3.139,8.278,8.278,0,0,1-1.237-4.475,8.08,8.08,0,0,1,1.123-4.245,8.13,8.13,0,0,1,3.057-2.95,8.843,8.843,0,0,1,4.393-1.082,8.373,8.373,0,0,1,4.475,1.188,8.12,8.12,0,0,1,3.016,3.311A10.667,10.667,0,0,1,54.03-.163V.362H41.95a4.338,4.338,0,0,0,.967,1.7,4.79,4.79,0,0,0,1.672,1.156,5.807,5.807,0,0,0,2.295.426,7.632,7.632,0,0,0,4.671-1.623ZM41.737-2.031h7.949a4.332,4.332,0,0,0-.664-1.877,3.753,3.753,0,0,0-1.393-1.27A4.027,4.027,0,0,0,45.7-5.637a3.857,3.857,0,0,0-1.926.475,3.889,3.889,0,0,0-1.369,1.278A4.481,4.481,0,0,0,41.737-2.031Z" transform="translate(186.342 29.217)"/>
    <g id="leaf" transform="translate(135.844)">
      <path id="Path_2867" data-name="Path 2867" d="M243.24,66.382c3.585,2.961,3.013,4.831,2.58,6.962.814-.831,1.576-2.026,1.576-4.624,2.935,1.74,3.325,3.812,2.909,7.9a4.562,4.562,0,0,0,2.6-2.286s.624.572.675,2.805a8.527,8.527,0,0,1-1.195,4.208,5.46,5.46,0,0,0,2.286-.26c.364,1.039-.312,2.182-.572,3.74a7.308,7.308,0,0,0,.987-4.883,1.821,1.821,0,0,1-1.87.675c1.507-3.585.987-5.4-.624-8.519.208.727-.767,2.781-1.495,2.885.4-3.508-1-5.482-2.558-6.521a12.767,12.767,0,0,1-1.766-1.4s.1,1.506-.416,1.818c-.416-1.974-2.909-3.74-6.078-6.546a7.251,7.251,0,0,1-2.515-4.717c.178,3.833,2.292,6.14,5.477,8.771Z" transform="translate(-235.329 -56.096)" fill="#23dc00"/>
      <path id="Path_2868" data-name="Path 2868" d="M237.254,34.836a5.628,5.628,0,0,0-.022,1.516A12.433,12.433,0,0,1,237.254,34.836Z" transform="translate(-234.798 -34.836)" fill="#23dc00"/>
      <path id="Path_2869" data-name="Path 2869" d="M211.294,74.7s.675-.883,1.017-1.3a6.582,6.582,0,0,1-5.381-2.182c.831,0,1.974-.987,2.65-1.922-5.611-.1-6.494-4.676-6.494-4.676a4.816,4.816,0,0,0,2.7-.519c-2.234-2.026-3.221-6.546-3.792-9.715s.934-8.624.934-8.624c-.727,1.922-2.234,6.13-1.559,10.338.727,5.507,2.546,7.689,2.546,7.689a4.418,4.418,0,0,1-2.546-.312,2.7,2.7,0,0,1,.416.779c1.039,3.792,5.766,5.715,5.766,5.715a7.392,7.392,0,0,1-2.546.831c.468.156,4.623,3.117,6.078,3.221l-.935.935c.675.052,4.312,1.351,6.13,1.143-4.467-.312-4.987-1.4-4.987-1.4Z" transform="translate(-201.202 -45.036)" fill="#23dc00"/>
      <path id="Path_2870" data-name="Path 2870" d="M277.1,232.77a30.151,30.151,0,0,0,14.442,19.482C285.377,246.156,281.127,243.2,277.1,232.77Z" transform="translate(-272.047 -219.592)" fill="#23dc00"/>
    </g>
  </g>
</svg>
