<svg xmlns="http://www.w3.org/2000/svg" width="50.264" height="50.264" viewBox="0 0 50.264 50.264">
  <g id="every-day" transform="translate(-81.56 -12.674)">
    <path id="Path_2899" data-name="Path 2899" d="M81.7,276.224c.27,1.354,1.493,3.148,2.869,3.148h0a1.572,1.572,0,0,0,.253-.021,2.375,2.375,0,0,0,.379-.093.736.736,0,0,1,.457,0,2.39,2.39,0,0,0,.377.092,1.919,1.919,0,0,0,1.433-.4,3.3,3.3,0,0,0,2.093.77,2.6,2.6,0,0,0,1.718-.623,1.9,1.9,0,0,0,1.382.623,2.261,2.261,0,0,0,2.066-2.41h0A3.215,3.215,0,0,0,93.748,275l.634-3.485a.344.344,0,0,0-.6-.286l-1.023,1.192.247-1.6h0a.344.344,0,0,0-.616-.259L91.2,272.142l.2-1.238a1.611,1.611,0,0,0-1.591-1.862h-.584v-.764L90.339,268l-.167-.668-.95.238v-.592h-.689v.592l-.95-.238-.167.668,1.116.279v.764H87.389c-.447-3.277-2.18-6.543-3.677-6.543-1.429,0-2.066,2.5-2.066,8.092a15.809,15.809,0,0,0,.405,3.637,2.715,2.715,0,0,0-.347,2Zm4.444,2.447a1.729,1.729,0,0,1-.268-.066,1.417,1.417,0,0,0-.893,0,1.731,1.731,0,0,1-.27.066c-1.025.162-2.107-1.427-2.338-2.583a2.03,2.03,0,0,1,.3-1.573,1.789,1.789,0,0,1,1.193-.757,1.932,1.932,0,0,1,1.371.3.344.344,0,0,0,.375,0,1.931,1.931,0,0,1,1.372-.3,1.872,1.872,0,0,1,1.524,2.008,2.232,2.232,0,0,0-1.706,1.885,1.515,1.515,0,0,0,.218.768,1.241,1.241,0,0,1-.881.252Zm3.418.357c-1.023,0-2.066-.695-2.066-1.377s1.043-1.377,2.066-1.377h0a1.973,1.973,0,0,1,1.114.34,3.172,3.172,0,0,0-.081.693,2.7,2.7,0,0,0,.287,1.22A1.915,1.915,0,0,1,89.566,279.029Zm4.477-1.722a1.412,1.412,0,1,1-2.755,0c0-1.023.7-2.066,1.377-2.066s1.378,1.043,1.378,2.066Zm-.566-4.665-.36,1.984h0a1.4,1.4,0,0,0-.688-.053l.133-.864Zm-1.361-.571-.438,2.847h0a2.751,2.751,0,0,0-.769,1.019,2.555,2.555,0,0,0-.285-.139l.348-2.2Zm-2.31-2.34a.922.922,0,0,1,.911,1.066l-.049.311h-1.1v.689h.993l-.326,2.066h-.666v.689h.558l-.168,1.063a2.753,2.753,0,0,0-.39-.03,3.055,3.055,0,0,0-.349.023,2.553,2.553,0,0,0-1.908-2.485c.015-.1.032-.194.045-.293h1.524v-.689H87.431c.045-.505.07-1.023.07-1.55,0-.284-.013-.571-.036-.861Zm-6.094-6.543c1.111,0,3.1,3.732,3.1,7.4h0a15.99,15.99,0,0,1-.188,2.459,2.579,2.579,0,0,0-.62.1l.427-.855-.616-.308-.636,1.272c-.035-.015-.069-.033-.1-.047l-.176-3.346,1.034-.516-.307-.616-.766.382-.114-2.158-.688.036.039.742-.537-.358-.382.573.964.643.1,1.943-1.092-.437-.256.639,1.388.556.093,1.767h0a2.419,2.419,0,0,0-1.759.524,15.629,15.629,0,0,1-.283-2.995c0-6.87,1.054-7.4,1.378-7.4Z" transform="translate(7.655 -227.719)" fill="#23dc00"/>
    <path id="Path_2900" data-name="Path 2900" d="M93.332,11.668h.805v.805h-.805Z" transform="translate(-4.434 16)" fill="#23dc00"/>
    <path id="Path_2901" data-name="Path 2901" d="M93.332,35h.805v.805h-.805Z" transform="translate(-4.434 -5.722)" fill="#23dc00"/>
    <path id="Path_2902" data-name="Path 2902" d="M105,23.332h.805v.805H105Z" transform="translate(-15.298 5.14)" fill="#23dc00"/>
    <path id="Path_2903" data-name="Path 2903" d="M81.668,23.332h.805v.805h-.805Z" transform="translate(6.425 5.14)" fill="#23dc00"/>
    <path id="Path_2904" data-name="Path 2904" d="M595,11.668h.8v.805H595Z" transform="translate(-475.683 11.854)" fill="#23dc00"/>
    <path id="Path_2905" data-name="Path 2905" d="M595,35h.8v.805H595Z" transform="translate(-475.683 -9.867)" fill="#23dc00"/>
    <path id="Path_2906" data-name="Path 2906" d="M606.67,23.332h.805v.805h-.805Z" transform="translate(-486.548 0.995)" fill="#23dc00"/>
    <path id="Path_2907" data-name="Path 2907" d="M583.33,23.332h.805v.805h-.805Z" transform="translate(-464.818 0.995)" fill="#23dc00"/>
    <path id="Path_2908" data-name="Path 2908" d="M495.83,455h.805v1.207h-.805Z" transform="translate(-379.972 -406.938)" fill="#23dc00"/>
    <path id="Path_2909" data-name="Path 2909" d="M455,455h.805v1.207H455Z" transform="translate(-342.175 -406.938)" fill="#23dc00"/>
    <path id="Path_2910" data-name="Path 2910" d="M414.17,455h.805v1.207h-.805Z" transform="translate(-304.378 -406.938)" fill="#23dc00"/>
    <path id="Path_2911" data-name="Path 2911" d="M309.17,536.67h.805v.805h-.805Z" transform="translate(-206.177 -476.973)" fill="#23dc00"/>
    <path id="Path_2912" data-name="Path 2912" d="M332.5,519.17h.805v.805H332.5Z" transform="translate(-227.775 -460.681)" fill="#23dc00"/>
    <path id="Path_2913" data-name="Path 2913" d="M355.83,530.83h.805v.805h-.805Z" transform="translate(-249.372 -471.536)" fill="#23dc00"/>
    <path id="Path_2914" data-name="Path 2914" d="M320.83,495.83h.805v.805h-.805Z" transform="translate(-216.971 -438.951)" fill="#23dc00"/>
    <path id="Path_2915" data-name="Path 2915" d="M233.541,20.522a8.864,8.864,0,1,0-2.6,6.258A8.854,8.854,0,0,0,233.541,20.522Zm-8.854,8.05a8.059,8.059,0,1,1,5.689-2.36A8.05,8.05,0,0,1,224.687,28.572Z" transform="translate(-121.165 4)" fill="#23dc00"/>
    <path id="Path_2916" data-name="Path 2916" d="M368.512,202.359a10.212,10.212,0,0,0-3.214.524,17.1,17.1,0,0,1,1.26-1.943l.264-.352a.4.4,0,0,0-.5-.6l-2.6,1.3c-.022-.357-.038-.714-.038-1.072v-1.478a.4.4,0,0,0-.774-.155l-.953,2.286-2.014-2.014a.4.4,0,0,0-.666.412l.3.887h0a9.5,9.5,0,0,1,.468,2.516,9.421,9.421,0,0,0-2.757-.711.4.4,0,0,0-.24.75l.19.109a7.707,7.707,0,0,1,3.089,3.74h0a6.112,6.112,0,0,0-4.689,5.933v1.944H350.4a.4.4,0,0,0-.4.4,7.636,7.636,0,0,0,9.814,7.33,6.01,6.01,0,0,0,1.926.317h.668a6.112,6.112,0,0,0,6.105-6.105V212.49a6.111,6.111,0,0,0-3.627-5.575l.457-.685a9.378,9.378,0,0,1,2.613-2.613l.78-.52h0a.4.4,0,0,0-.223-.737Zm-3.278-.93a17.885,17.885,0,0,0-1,1.753l-.08.159-.162.079q-.12-.632-.191-1.273Zm-2.007,2.314.016.083c-.05.03-.1.056-.151.087l-.537.336h0a9.413,9.413,0,0,0-.858-.667l1.188-2.851a18.038,18.038,0,0,0,.342,3.012Zm-2.688-3.153,1.082,1.082-.614,1.475c-.047-.027-.1-.052-.144-.078a10.3,10.3,0,0,0-.323-2.479Zm-1.548,2.543a8.635,8.635,0,0,1,4.33,3.136l.156.214a6.091,6.091,0,0,0-1.07-.1h-.668c-.2,0-.4.011-.6.03A9.983,9.983,0,0,0,358.99,203.133Zm8.716,13.245a5.311,5.311,0,0,1-.042.638l-2.459-1.093c.025-.177.046-.355.058-.535l.78-2.341,1.663.831Zm-3.334-1.139a7.1,7.1,0,0,1-13.457,0Zm-5.382-.8.181-.6,1.379.6Zm5.743,0h-2.175l-.3-.131.859-2.72,2.2,1.1Zm-3.215-.455-2.114-.925.868-2.894,2.117,1.058Zm-1.011-4.6.647-2.155h0a5.286,5.286,0,0,1,.584-.034h.668a5.275,5.275,0,0,1,1.21.145l-.981,3.108Zm-.731-.365-1.334-.667a5.282,5.282,0,0,1,1.817-.942Zm-1.958-.079,1.723.862-.88,2.934-2.171-.95A5.277,5.277,0,0,1,357.819,208.934Zm-1.382,3.7,1.991.871-.278.928h-1.713Zm-4.862,5.343a7.808,7.808,0,0,0,12.14,0,6.828,6.828,0,0,1-12.14,0Zm10.163,3.7a5.343,5.343,0,0,1-.616-.04,7.683,7.683,0,0,0,1.969-1.443l1.892.811a5.266,5.266,0,0,1-2.576.672Zm4.035-1.209-2.125-.911a7.616,7.616,0,0,0,1.4-2.827l2.457,1.092h0a5.312,5.312,0,0,1-1.729,2.645Zm1.935-7.492-1.405-.7.768-2.3h0a5.27,5.27,0,0,1,.638,2.518ZM366.5,209.13l-.927,2.782-2.21-1.105,1.02-3.23h0a5.324,5.324,0,0,1,2.118,1.553Zm-1.83-3.346-.34.509-.361-.5a9.379,9.379,0,0,0-.817-.972l.364-.228a9.409,9.409,0,0,1,3.519-1.316,10.189,10.189,0,0,0-2.365,2.5Z" transform="translate(-245.736 -168.251)" fill="#23dc00"/>
    <path id="Path_2917" data-name="Path 2917" d="M338.33,484.17h.805v.805h-.805Z" transform="translate(-233.172 -428.095)" fill="#23dc00"/>
    <path id="Path_2918" data-name="Path 2918" d="M309.17,472.5h.805v.805h-.805Z" transform="translate(-206.177 -417.23)" fill="#23dc00"/>
    <path id="Path_2919" data-name="Path 2919" d="M283.82,66c-.79-2.6-3.991-4.027-6.813-4.294-.706-.066-2.392-.142-2.783.6h0c-.227.433.057.839.359,1.27a3.452,3.452,0,0,1,.8,2.132,2.28,2.28,0,0,1-.186.89,2.7,2.7,0,0,0-.216,1.137,4.454,4.454,0,0,0,2.212,3.558,4.526,4.526,0,0,0,2.285.6,4.847,4.847,0,0,0,2.109-.487c.089.235.174.471.253.709l.372,1.118.763-.255-.372-1.118c-.1-.293-.205-.584-.317-.874a4.151,4.151,0,0,0,.643-.579A4.715,4.715,0,0,0,283.82,66Zm-1.85,4.217c-.137-.313-.278-.623-.431-.927h0a19.647,19.647,0,0,0-2.479-3.79l-.583-.7-.618.515.583.7a18.836,18.836,0,0,1,2.377,3.635c.167.334.322.675.469,1.019A3.914,3.914,0,0,1,277.6,70.6a3.673,3.673,0,0,1-1.813-2.882,1.922,1.922,0,0,1,.164-.834,3.061,3.061,0,0,0,.238-1.164,4.246,4.246,0,0,0-.948-2.6,3.143,3.143,0,0,1-.283-.449,5.5,5.5,0,0,1,3.11.016c.978.206,4.226,1.072,4.981,3.552h0a3.893,3.893,0,0,1-.72,3.64,3.378,3.378,0,0,1-.359.343Z" transform="translate(-175.416 -42.552)" fill="#23dc00"/>
    <path id="Path_2920" data-name="Path 2920" d="M351.6,285.829h-.8a1.872,1.872,0,0,1-.345,1.134,2.837,2.837,0,0,0,0,3.1,2.038,2.038,0,0,1,0,2.27,2.659,2.659,0,0,0-.46,1.549h.805a1.875,1.875,0,0,1,.345-1.135,2.84,2.84,0,0,0,0-3.1,2.037,2.037,0,0,1,0-2.268,2.656,2.656,0,0,0,.46-1.548Z" transform="translate(-244.934 -250.439)" fill="#23dc00"/>
    <path id="Path_3000" data-name="Path 3000" d="M112.629,17.5a25.161,25.161,0,1,0,17.762,7.369A25.133,25.133,0,0,0,112.629,17.5Zm0,48.588a23.482,23.482,0,1,1,16.578-6.878,23.457,23.457,0,0,1-16.578,6.878Z" transform="translate(-5.937 -4.826)" fill="#23dc00"/>
  </g>
</svg>
