<svg xmlns="http://www.w3.org/2000/svg" width="50.142" height="50.126" viewBox="0 0 50.142 50.126">
  <g id="features-icon03" transform="translate(-69.826 0.006)">
    <path id="Path_2873" data-name="Path 2873" d="M176.525,92.409a.783.783,0,1,1-1.007-.462.783.783,0,0,1,1.007.462" transform="translate(-95.766 -83.677)" fill="#23dc00"/>
    <path id="Path_2874" data-name="Path 2874" d="M163.365,131.744a.783.783,0,1,1-1.007-.462.783.783,0,0,1,1.007.462" transform="translate(-83.784 -119.492)" fill="#23dc00"/>
    <path id="Path_2875" data-name="Path 2875" d="M129.859,3.479a.783.783,0,0,0,.783-.783,1.049,1.049,0,0,1,.666-.995.943.943,0,0,1,.736,0,.933.933,0,0,1,.482.548,1.01,1.01,0,0,1-.564,1.3.783.783,0,0,0-.454.995l.728,2.044a.783.783,0,1,0,1.476-.524L133.2,4.623h0a2.584,2.584,0,0,0,.783-2.9,2.5,2.5,0,0,0-3.25-1.492,2.624,2.624,0,0,0-1.668,2.479.783.783,0,0,0,.8.772Z" transform="translate(-53.936 -0.061)" fill="#23dc00"/>
    <path id="Path_2876" data-name="Path 2876" d="M71.549,74.665a.783.783,0,0,0,.094-1.1,1.042,1.042,0,0,1-.063-1.23,1.175,1.175,0,0,1,1.566-.392,1.027,1.027,0,0,1,.474.623.974.974,0,0,1-.137.783.783.783,0,0,0,.274,1.085l1.958,1.175a.783.783,0,0,0,.783-1.351l-1.371-.811a2.515,2.515,0,0,0,0-1.23,2.582,2.582,0,0,0-1.218-1.621,2.742,2.742,0,0,0-3.67.913,2.6,2.6,0,0,0,.188,3.074.783.783,0,0,0,1.12.086Z" transform="translate(0 -63.952)" fill="#23dc00"/>
    <path id="Path_2877" data-name="Path 2877" d="M463.855,13.7a.783.783,0,0,0,.92,1.128l3.548-1.128a7.637,7.637,0,0,0,2.871.56,7.3,7.3,0,0,0,7.441-7.131,7.447,7.447,0,0,0-14.881,0,6.928,6.928,0,0,0,1.437,4.226Zm7.339-12.14a5.734,5.734,0,0,1,5.874,5.565,5.734,5.734,0,0,1-5.874,5.565,6.077,6.077,0,0,1-2.51-.556.785.785,0,0,0-.56-.031l-1.923.619.623-1.1a.784.784,0,0,0-.1-.909,5.391,5.391,0,0,1-1.406-3.583,5.734,5.734,0,0,1,5.874-5.565Z" transform="translate(-358.666 0)" fill="#23dc00"/>
    <path id="Path_2878" data-name="Path 2878" d="M512.653,58.441h4.7a.783.783,0,0,0,0-1.566h-4.7a.783.783,0,1,0,0,1.566Z" transform="translate(-402.476 -51.789)" fill="#23dc00"/>
    <path id="Path_2879" data-name="Path 2879" d="M512.653,93.446h4.7a.783.783,0,0,0,0-1.566h-4.7a.783.783,0,1,0,0,1.566Z" transform="translate(-402.476 -83.661)" fill="#23dc00"/>
    <path id="Path_2880" data-name="Path 2880" d="M229.85,19.507a2.351,2.351,0,0,0,1.508-.552,5.091,5.091,0,0,0,9.516,0,2.35,2.35,0,0,0,3.857-1.8v-.783a2.35,2.35,0,0,0-1.175-2.036,7.832,7.832,0,0,0-14.881,0,2.35,2.35,0,0,0-1.175,2.036v.783a2.349,2.349,0,0,0,2.35,2.35Zm.783-2.35a.783.783,0,1,1-1.566,0v-.783a.783.783,0,1,1,1.566,0Zm5.483,3.525a3.524,3.524,0,1,1,2.492-1.032A3.526,3.526,0,0,1,236.116,20.682Zm7.049-3.525a.783.783,0,1,1-1.566,0v-.783a.783.783,0,1,1,1.566,0ZM236.116,10.5a6.265,6.265,0,0,1,5.663,3.607,2.349,2.349,0,0,0-1.147.7,5.091,5.091,0,0,0-9.031,0,2.346,2.346,0,0,0-1.147-.7,6.265,6.265,0,0,1,5.663-3.6Z" transform="translate(-143.561 -8.155)" fill="#23dc00"/>
    <path id="Path_2881" data-name="Path 2881" d="M299.85,280.32a2.349,2.349,0,1,0-1.662-.688A2.35,2.35,0,0,0,299.85,280.32Zm0-3.133a.783.783,0,1,1-.783.783A.783.783,0,0,1,299.85,277.187Z" transform="translate(-207.295 -250.955)" fill="#23dc00"/>
    <path id="Path_2882" data-name="Path 2882" d="M213.53,450.62h-2.741a.783.783,0,0,0,0,1.566h2.741a.783.783,0,0,0,0-1.566Z" transform="translate(-127.631 -410.289)" fill="#23dc00"/>
    <path id="Path_2883" data-name="Path 2883" d="M436.65,450.62h-2.741a.783.783,0,0,0,0,1.566h2.741a.783.783,0,1,0,0-1.566Z" transform="translate(-330.78 -410.289)" fill="#23dc00"/>
    <path id="Path_2884" data-name="Path 2884" d="M118.557,156.225H104.306l.447-7.4a2.236,2.236,0,0,0-1.469-2.259,5.9,5.9,0,0,0-4.993-5.522,6.717,6.717,0,0,1-1.3,1.472h.262a4.4,4.4,0,0,1,4.464,3.916H83.7a4.4,4.4,0,0,1,4.464-3.916h.262a6.724,6.724,0,0,1-1.3-1.472,5.9,5.9,0,0,0-4.993,5.522,2.233,2.233,0,0,0-1.48,2.259l.458,7.4H71.563A1.566,1.566,0,0,0,70,157.791v1.566a1.566,1.566,0,0,0,1.566,1.566h1.958v16.839a.783.783,0,0,0,1.566,0v-2.741h39.945v2.741a.783.783,0,0,0,1.566,0V160.924h1.958a1.566,1.566,0,0,0,1.566-1.566v-1.566a1.566,1.566,0,0,0-1.566-1.566Zm-36.146-8.012A.688.688,0,0,1,82.92,148H102.5a.677.677,0,0,1,.689.732l-.6,9.791a.9.9,0,0,1-.877.834H83.7a.9.9,0,0,1-.881-.826l-.6-9.791a.689.689,0,0,1,.184-.529Zm-10.848,9.579h9.646l.051.834h0a2.348,2.348,0,0,0,.169.732H71.563Zm3.525,7.832h19.19v7.832H75.088Zm20.756,7.832v-7.832h19.19v7.832Zm19.19-9.4H75.089v-3.133h39.945Zm3.525-4.7H104a2.354,2.354,0,0,0,.165-.732l.051-.834h14.345Z" transform="translate(-0.155 -128.426)" fill="#23dc00"/>
  </g>
</svg>
