<svg xmlns="http://www.w3.org/2000/svg" width="55.706" height="49.948" viewBox="0 0 55.706 49.948">
  <g id="features-icon04" transform="translate(-77.323 -40.034)">
    <path id="Path_2885" data-name="Path 2885" d="M82.365,252.237a28.666,28.666,0,0,0,.592,5.557,21.183,21.183,0,0,0,3.28,7.7,22.267,22.267,0,0,0,9.817,7.607l.159.046a3.3,3.3,0,0,0,.615.068,2.794,2.794,0,0,0,.592-.068l.182-.068a22.267,22.267,0,0,0,9.817-7.607,21.015,21.015,0,0,0,3.28-7.7,30.34,30.34,0,0,0,.592-5.557V251.6a12.332,12.332,0,0,0,0-1.3,1.742,1.742,0,0,0-1.868-1.822,24.239,24.239,0,0,1-9.384-2.369c-.547-.251-1.116-.569-1.663-.888l-.592-.364-.114-.068a2.126,2.126,0,0,0-.774-.228h-.182a2.126,2.126,0,0,0-.774.228l-.706.41a17.029,17.029,0,0,1-1.686.888,24.312,24.312,0,0,1-9.361,2.346,1.743,1.743,0,0,0-1.868,1.8,11.439,11.439,0,0,0,0,1.253v.752Zm2.255-1.48a26.465,26.465,0,0,0,9.93-2.551c.638-.3,1.23-.638,1.822-.957l.433-.273.433.273c.592.319,1.184.661,1.8.957a26.27,26.27,0,0,0,9.953,2.551c0,.273,0,.524-.023.82v.638a27.421,27.421,0,0,1-.524,5.1,18.982,18.982,0,0,1-2.915,6.878,20.161,20.161,0,0,1-8.723,6.765h-.023a19.955,19.955,0,0,1-8.7-6.765,18.984,18.984,0,0,1-2.915-6.878,27.577,27.577,0,0,1-.547-5.1v-1.458Z" transform="translate(-4.979 -183.232)" fill="#23dc00"/>
    <path id="Path_2886" data-name="Path 2886" d="M400.144,224.59a5.375,5.375,0,1,0,0-7.926A5.379,5.379,0,1,0,396.5,226,5.528,5.528,0,0,0,400.144,224.59Zm-8.131-3.986a4.5,4.5,0,0,1,4.487-4.487,4.451,4.451,0,0,1,3.3,1.458l.342.364.342-.364a4.451,4.451,0,0,1,3.3-1.458,4.487,4.487,0,1,1,0,8.974,4.451,4.451,0,0,1-3.3-1.458l-.342-.364-.342.364a4.451,4.451,0,0,1-3.3,1.458A4.5,4.5,0,0,1,392.013,220.6Z" transform="translate(-281.647 -156.974)" fill="#23dc00"/>
    <path id="Path_2887" data-name="Path 2887" d="M83.829,63.357a1.142,1.142,0,0,0,1.139-1.139v-9.7h51.111V68.8a5.789,5.789,0,0,1-5.762,5.785H114.3a1.139,1.139,0,1,0,0,2.278h16.012a8.039,8.039,0,0,0,8.04-8.04V48.074a8.039,8.039,0,0,0-8.04-8.04H90.73a8.039,8.039,0,0,0-8.04,8.04V62.218a1.142,1.142,0,0,0,1.139,1.139Zm1.139-15.283a5.769,5.769,0,0,1,5.762-5.762h39.563a5.769,5.769,0,0,1,5.762,5.762v2.164H84.967Z" transform="translate(-5.326 0)" fill="#23dc00"/>
    <path id="Path_2888" data-name="Path 2888" d="M129.081,314.773a.45.45,0,0,0,.319-.137l4.988-4.988a.451.451,0,0,0-.638-.638L128.762,314a.44.44,0,0,0,0,.638A.45.45,0,0,0,129.081,314.773Z" transform="translate(-46.478 -240.848)" fill="#23dc00"/>
    <path id="Path_2889" data-name="Path 2889" d="M159.6,325.112a.44.44,0,0,0,.638,0l11.525-11.525a.451.451,0,0,0-.638-.638L159.6,324.474A.44.44,0,0,0,159.6,325.112Z" transform="translate(-74.11 -244.377)" fill="#23dc00"/>
    <path id="Path_2890" data-name="Path 2890" d="M214.734,391.477a.44.44,0,0,0,.638,0l8.769-8.769a.451.451,0,0,0-.638-.638l-8.769,8.769A.44.44,0,0,0,214.734,391.477Z" transform="translate(-123.499 -306.301)" fill="#23dc00"/>
  </g>
</svg>
