<svg xmlns="http://www.w3.org/2000/svg" width="58.028" height="48.184" viewBox="0 0 58.028 48.184">
  <g id="features-icon02" transform="translate(-151.895 -99.979)">
    <path id="Path_2871" data-name="Path 2871" d="M207.955,128.468a4.174,4.174,0,0,0-4.026-.27l-9.131,4.246h0a4.148,4.148,0,0,0-3.068-3.927,16.322,16.322,0,1,0-26.558-16.567l-1.2-.171,1.791,4.565,3.043-3.829-1.2-.172a13.868,13.868,0,1,1,20.176,16.027H180.1l-2.872-2.969a3.731,3.731,0,0,0-2.651-1.08H162.5a3.732,3.732,0,0,0-3.51-2.454h-5.867a1.227,1.227,0,0,0-1.227,1.227v10.849a1.227,1.227,0,0,0,2.454,0v-9.67h4.565a1.277,1.277,0,0,1,1.277,1.276v15.021a1.276,1.276,0,0,1-1.277,1.277h-4.565v-3.9a1.227,1.227,0,0,0-2.454,0v5.106a1.227,1.227,0,0,0,1.227,1.227h5.793a3.731,3.731,0,0,0,3.363-2.111l14.947,5.6a6.307,6.307,0,0,0,4.909-.2l25.453-11.806a4.172,4.172,0,0,0,.368-7.289Zm-1.522,5.08L180.98,145.354a3.828,3.828,0,0,1-2.945,0l-15.389-5.645V126.774H174.5a1.279,1.279,0,0,1,.908.368l3.313,3.289h0a1.228,1.228,0,0,0,.859.368H190.6a1.717,1.717,0,0,1,1.718,1.693,1.644,1.644,0,0,1-.81,1.4H174.771a1.227,1.227,0,0,0,0,2.454h17.672l12.518-5.817h0a1.716,1.716,0,0,1,1.669,0,1.693,1.693,0,0,1,.786,1.448,1.718,1.718,0,0,1-.982,1.571Z" fill="#23dc00"/>
    <path id="Path_2872" data-name="Path 2872" d="M321.3,139.2a5.129,5.129,0,0,0,3.215,4.786,5.476,5.476,0,0,0,.785.245v5.424a2.749,2.749,0,0,1-1.4-1.571,1.23,1.23,0,0,0-2.332.785,5.2,5.2,0,0,0,3.755,3.387v1.645h0a1.227,1.227,0,0,0,2.454,0v-1.62a5.2,5.2,0,0,0,1.325-9.622,5.7,5.7,0,0,0-1.325-.368v-5.547a2.75,2.75,0,0,1,1.4,1.547,1.24,1.24,0,0,0,2.307-.908,5.2,5.2,0,0,0-3.706-3.24v-1.669a1.227,1.227,0,1,0-2.454,0v1.645a5.227,5.227,0,0,0-4.025,5.08Zm6.676,5.695h0a2.7,2.7,0,0,1-.2,4.761V144.75Zm-2.651-8.174v4.909a2.577,2.577,0,0,1-1.546-2.454,2.772,2.772,0,0,1,1.546-2.454Z" transform="translate(-145.645 -26.885)" fill="#23dc00"/>
  </g>
</svg>
