<svg xmlns="http://www.w3.org/2000/svg" width="74.768" height="47.462" viewBox="0 0 74.768 47.462">
  <path id="features-icon01" d="M111.106,158a6.641,6.641,0,0,1-12.975,0H91.278V144.259l.317-.459,10.32-14.946h13.927v-13.09h50.2V158h-9.9a6.641,6.641,0,0,1-12.975,0H111.106Zm42.686-29.4-8.32,8.245,3.274,4.108-25.133,8.575L136.483,137l-3.231-4.05,24.981-8.753-4.441,4.4Zm-11.21,7.134L147.359,131l-9.418,3.3,2.345,2.94-5.715,5.562,9.463-3.229-2.352-2.949.9-.891Zm-35.272,18.16a3.807,3.807,0,1,0,0,5.385A3.8,3.8,0,0,0,107.31,153.894Zm3.8,1.276h4.737V131.685H103.389l-.79,1.144h6.984v13.279H94.111v9.062h4.02a6.641,6.641,0,0,1,12.975,0Zm41.249-1.276a3.807,3.807,0,1,0,0,5.385A3.8,3.8,0,0,0,152.354,153.894Zm3.8,1.276h7.064V118.6H118.676v36.574h24.5a6.641,6.641,0,0,1,12.975,0ZM111.3,134.245a1.416,1.416,0,1,1,2.832,0v10.446a1.416,1.416,0,0,1-2.832,0Zm-15.91,9.03H106.75v-7.613h-5.828a1.481,1.481,0,0,1-.262-.024l-5.273,7.637Z" transform="translate(-91.278 -115.763)" fill="#23dc00"/>
</svg>
