<svg xmlns="http://www.w3.org/2000/svg" width="66.425" height="66.637" viewBox="0 0 66.425 66.637">
  <g id="hand-icon" transform="translate(-87.495 -17.137)">
    <path id="Path_2891" data-name="Path 2891" d="M209.021,53.808h22.2a5.555,5.555,0,0,0,5.549-5.549V28.282a2.219,2.219,0,0,0,2.22-2.22v-3.33a2.219,2.219,0,0,0-2.22-2.22H234.5a4.58,4.58,0,0,0-1.026-2.032,3.8,3.8,0,0,0-3.835-1.221,35.591,35.591,0,0,0-7.449,3.253h-4.133a35.611,35.611,0,0,0-7.449-3.257,3.8,3.8,0,0,0-3.835,1.221,4.572,4.572,0,0,0-1.026,2.036h-2.271a2.219,2.219,0,0,0-2.22,2.22v3.33a2.219,2.219,0,0,0,2.22,2.22V48.259a5.555,5.555,0,0,0,5.549,5.549Zm-3.33-5.549V28.878A4.365,4.365,0,0,0,207.9,32a15.076,15.076,0,0,0-1,3.3,1.933,1.933,0,0,0,3.108,1.847l1.825-1.46,1.592,1.581a1.917,1.917,0,0,0,2.806-.1V51.588h-7.214a3.329,3.329,0,0,1-3.329-3.329ZM230.062,32.4a14.111,14.111,0,0,1,.92,2.518l-1.975-1.581a1.11,1.11,0,0,0-1.478.082l-1.95,1.949h0a33.462,33.462,0,0,0-2.553-5.819,32.938,32.938,0,0,0,6.607,2.8,3.8,3.8,0,0,0,.43.054Zm-8.278-8a1.665,1.665,0,1,1-1.665-1.665,1.665,1.665,0,0,1,1.665,1.665ZM214.66,35.368l-1.95-1.949h0a1.11,1.11,0,0,0-1.478-.082l-1.975,1.581a14.111,14.111,0,0,1,.92-2.518,3.754,3.754,0,0,0,.427-.054,32.93,32.93,0,0,0,6.606-2.8,33.468,33.468,0,0,0-2.55,5.819Zm3.795,16.22V31.943a26.106,26.106,0,0,1,1.665-2.918,26.1,26.1,0,0,1,1.665,2.918V51.588Zm12.763,0H224V37.175a1.917,1.917,0,0,0,2.806.1l1.586-1.585,1.823,1.459a1.934,1.934,0,0,0,3.108-1.847,15.039,15.039,0,0,0-1-3.3,4.366,4.366,0,0,0,2.22-3.124V48.258a3.329,3.329,0,0,1-3.329,3.329Zm5.549-25.526h-2.553l-.486-1.262.586-1.521a4.653,4.653,0,0,0,.163-.547h2.29ZM230.182,19.4a1.6,1.6,0,0,1,1.628.548,2.49,2.49,0,0,1,.427,2.527L231.5,24.4a1.109,1.109,0,0,0,0,.8l.739,1.919a2.487,2.487,0,0,1-.427,2.527,1.606,1.606,0,0,1-1.628.555,35,35,0,0,1-7.2-3.2,3.913,3.913,0,0,0,.627-.932h2.054a1.11,1.11,0,0,0,0-2.22h-1.721a3.837,3.837,0,0,0-.531-1.473,33.483,33.483,0,0,1,6.767-2.967ZM208.739,24.4,208,22.477a2.489,2.489,0,0,1,.427-2.52,1.6,1.6,0,0,1,1.628-.555,33.441,33.441,0,0,1,6.77,2.962,3.836,3.836,0,0,0-.534,1.477h-1.721a1.11,1.11,0,1,0,0,2.22h2.054a3.913,3.913,0,0,0,.627.932,35.051,35.051,0,0,1-7.2,3.2,1.606,1.606,0,0,1-1.628-.555A2.488,2.488,0,0,1,208,27.112l.739-1.919a1.11,1.11,0,0,0,0-.8Zm-5.268-1.665h2.29a4.648,4.648,0,0,0,.167.547l.586,1.521-.491,1.262h-2.553Z" transform="translate(-99.328)" fill="#23dc00"/>
    <path id="Path_2892" data-name="Path 2892" d="M511.853,123.955a4.528,4.528,0,0,0-2.736-.577,4.479,4.479,0,0,0-1.864-2.081,4.534,4.534,0,0,0-6.168,1.652c-1.77,2.877-1.416,6.357.973,10.39h0a2.537,2.537,0,0,0,2.343,1.138c4.476-.171,7.473-1.5,9.09-4.328a4.607,4.607,0,0,0-1.638-6.194Zm-.3,5.112c-1.2,2.22-3.635,3.242-7.492,3.187h0a.122.122,0,0,1-.1-.058c-1.982-3.3-2.3-5.939-.97-8.108h0a2.352,2.352,0,0,1,2.02-1.171,2.3,2.3,0,0,1,2.244,1.948,1.116,1.116,0,0,0,1.507.87,2.305,2.305,0,0,1,2.791,3.333Z" transform="translate(-360.158 -90.426)" fill="#23dc00"/>
    <path id="Path_2893" data-name="Path 2893" d="M95.652,121.315a4.479,4.479,0,0,0-1.864,2.081,4.551,4.551,0,0,0-2.736.577A4.611,4.611,0,0,0,89.4,130.14c1.633,2.852,4.628,4.184,9.1,4.355a2.538,2.538,0,0,0,2.343-1.137c2.391-4.033,2.743-7.515.99-10.364a4.541,4.541,0,0,0-6.182-1.68Zm3.292,10.9a.123.123,0,0,1-.1.057c-3.868.079-6.235-1.008-7.508-3.219h0a2.306,2.306,0,0,1,2.805-3.306,1.117,1.117,0,0,0,1.511-.866,2.308,2.308,0,0,1,4.281-.75c1.253,2.181,1,4.787-.987,8.083Z" transform="translate(-1.164 -90.444)" fill="#23dc00"/>
    <path id="Path_2894" data-name="Path 2894" d="M88.606,344.315h8.282a1.11,1.11,0,0,0,.565-.154l6.309-3.73.132.23a2.227,2.227,0,0,0,3.032.81c.719-.417,2.156-1.255,2.886-1.665a2.247,2.247,0,0,0,.814-3.032c-.043-.073-.172-.3-.172-.3l1.762-1.04h13.4a5.514,5.514,0,0,0,3.918-1.619l11.737-11.7a3.926,3.926,0,0,0-.288-5.765,4.022,4.022,0,0,0-5.315.378l-5.752,5.748a3.662,3.662,0,0,0-3.019-1.471h-5.8l-3.193-1.918c-1.872-1.124-6.659-3.5-10.671-1.263l-5.654,3.292-.237-.412h0a2.219,2.219,0,0,0-3.033-.814s-2.158,1.256-2.886,1.665a2.248,2.248,0,0,0-.814,3.033l.252.435-6.811,3.964a1.111,1.111,0,0,0-.555.96V343.2a1.11,1.11,0,0,0,1.11,1.11Zm19.724-24.56c3.067-1.706,7.228.517,8.435,1.239l3.459,2.075a1.111,1.111,0,0,0,.568.159s4.574-.012,6.1,0a1.756,1.756,0,0,1,1.67,1.665,1.665,1.665,0,0,1-1.665,1.665h-6.1a1.11,1.11,0,1,0,0,2.22h6.1a3.871,3.871,0,0,0,3.871-4.011l6.469-6.469a1.775,1.775,0,0,1,2.34-.23,1.684,1.684,0,0,1,.128,2.476l-11.737,11.7a3.312,3.312,0,0,1-2.351.971h-13.7a1.11,1.11,0,0,0-.565.154l-2.008,1.187-6.65-11.519Zm-11.792,3.723,2.886-1.665,9.272,16.072-2.886,1.665L96.536,323.48Zm-6.821,7.111,6.26-3.644,6.676,11.564L96.584,342.1H89.716Z" transform="translate(0 -260.541)" fill="#23dc00"/>
  </g>
</svg>
