<svg xmlns="http://www.w3.org/2000/svg" width="50.761" height="50.761" viewBox="0 0 50.761 50.761">
  <g id="harvest" transform="translate(-78.75 -8.75)">
    <path id="Path_2966" data-name="Path 2966" d="M104.131,59.511a25.381,25.381,0,1,1,25.381-25.381A25.409,25.409,0,0,1,104.131,59.511Zm0-49.534A24.152,24.152,0,1,0,128.283,34.13,24.179,24.179,0,0,0,104.131,9.978Z" fill="#23dc00"/>
    <path id="Path_2967" data-name="Path 2967" d="M204.927,111.917h-2.415a.614.614,0,0,1-.614-.614v-1.439a1.744,1.744,0,0,1,1.742-1.742h.159a1.744,1.744,0,0,1,1.742,1.742V111.3a.614.614,0,0,1-.614.614Zm-1.8-1.228h1.187v-.825a.515.515,0,0,0-.514-.514h-.159a.515.515,0,0,0-.514.514v.825Z" transform="translate(-111.626 -90.073)" fill="#23dc00"/>
    <path id="Path_2968" data-name="Path 2968" d="M215.422,89.708a.614.614,0,0,1-.614-.614V87.065a.614.614,0,0,1,1.228,0v2.029A.614.614,0,0,1,215.422,89.708Z" transform="translate(-123.327 -70.431)" fill="#23dc00"/>
    <path id="Path_2969" data-name="Path 2969" d="M195.348,87.677h-4.783a.614.614,0,0,1,0-1.228h4.783a.614.614,0,0,1,0,1.228Z" transform="translate(-100.796 -70.429)" fill="#23dc00"/>
    <path id="Path_2970" data-name="Path 2970" d="M462.2,111.917h-2.415a.614.614,0,0,1-.614-.614v-1.439a1.744,1.744,0,0,1,1.742-1.742h.159a1.744,1.744,0,0,1,1.742,1.742V111.3a.614.614,0,0,1-.614.614Zm-1.8-1.228h1.187v-.825a.515.515,0,0,0-.514-.514h-.159a.515.515,0,0,0-.514.514v.825Z" transform="translate(-344.823 -90.073)" fill="#23dc00"/>
    <path id="Path_2971" data-name="Path 2971" d="M472.682,89.708a.614.614,0,0,1-.614-.614V87.065a.614.614,0,1,1,1.228,0v2.029A.614.614,0,0,1,472.682,89.708Z" transform="translate(-356.515 -70.431)" fill="#23dc00"/>
    <path id="Path_2972" data-name="Path 2972" d="M451.208,87.677h-4.783a.614.614,0,1,1,0-1.228h4.783a.614.614,0,0,1,0,1.228Z" transform="translate(-332.715 -70.429)" fill="#23dc00"/>
    <path id="Path_2973" data-name="Path 2973" d="M286.128,115.455h-9.093a.614.614,0,0,1-.553-.348l-1.787-3.714a1.7,1.7,0,0,1,.007-1.522l1.779-3.7a.614.614,0,0,1,.553-.348h9.093a.614.614,0,0,1,.553.348l1.787,3.714a1.7,1.7,0,0,1-.007,1.522l-1.779,3.7A.613.613,0,0,1,286.128,115.455Zm-8.707-1.228h8.321l1.619-3.366a.479.479,0,0,0,.007-.428l-1.626-3.381h-8.321l-1.619,3.366a.479.479,0,0,0-.007.428Z" transform="translate(-177.451 -87.991)" fill="#23dc00"/>
    <path id="Path_2974" data-name="Path 2974" d="M193.27,139.633h-7.937a1.751,1.751,0,0,1-1.75-1.749v-.567a1.752,1.752,0,0,1,1.75-1.75h7.937V136.8h-7.937a.522.522,0,0,0-.522.522v.567a.522.522,0,0,0,.522.521h7.937Z" transform="translate(-95.024 -114.951)" fill="#23dc00"/>
    <path id="Path_2975" data-name="Path 2975" d="M420.829,139.633h-7.937V138.4h7.937a.522.522,0,0,0,.522-.521v-.567a.522.522,0,0,0-.522-.522h-7.937v-1.228h7.937a1.752,1.752,0,0,1,1.75,1.75v.567a1.751,1.751,0,0,1-1.75,1.749Z" transform="translate(-302.877 -114.951)" fill="#23dc00"/>
    <path id="Path_2976" data-name="Path 2976" d="M288.028,151.953h-12.9a.614.614,0,1,1,0-1.228h12.9a.614.614,0,1,1,0,1.228Z" transform="translate(-177.45 -128.691)" fill="#23dc00"/>
    <path id="Path_2977" data-name="Path 2977" d="M262.9,204.138a.614.614,0,0,1-.612-.572,9.371,9.371,0,0,1,3.345-7.845.614.614,0,1,1,.794.937,8.154,8.154,0,0,0-2.914,6.825.615.615,0,0,1-.572.655H262.9Z" transform="translate(-166.344 -169.344)" fill="#23dc00"/>
    <path id="Path_2978" data-name="Path 2978" d="M396.542,204.136H396.5a.615.615,0,0,1-.572-.655,8.156,8.156,0,0,0-2.914-6.825.614.614,0,1,1,.794-.937,9.374,9.374,0,0,1,3.346,7.845.614.614,0,0,1-.612.573Z" transform="translate(-284.662 -169.342)" fill="#23dc00"/>
    <path id="Path_2979" data-name="Path 2979" d="M344.052,199a.614.614,0,0,1-.614-.614v-2.146a.614.614,0,1,1,1.228,0v2.146A.614.614,0,0,1,344.052,199Z" transform="translate(-239.921 -169.389)" fill="#23dc00"/>
    <path id="Path_2980" data-name="Path 2980" d="M300.962,249.372h0a.614.614,0,0,1-.613-.615l.006-2.5a.614.614,0,0,1,.614-.613h0a.615.615,0,0,1,.613.615l-.006,2.5A.614.614,0,0,1,300.962,249.372Z" transform="translate(-200.863 -214.73)" fill="#23dc00"/>
    <path id="Path_2981" data-name="Path 2981" d="M301.222,260.969a.614.614,0,0,1-.439-1.043l1.269-1.3a.614.614,0,0,1,.879.858l-1.269,1.3A.613.613,0,0,1,301.222,260.969Z" transform="translate(-201.099 -226.326)" fill="#23dc00"/>
    <path id="Path_2982" data-name="Path 2982" d="M288.454,261.022a.612.612,0,0,1-.44-.185l-1.263-1.3a.614.614,0,1,1,.879-.857l1.263,1.3a.614.614,0,0,1-.439,1.043Z" transform="translate(-188.38 -226.379)" fill="#23dc00"/>
    <path id="Path_2983" data-name="Path 2983" d="M271.932,297.484a.614.614,0,0,1,0-1.228l1.794,0h0a.614.614,0,0,1,0,1.228l-1.794,0Z" transform="translate(-174.549 -260.601)" fill="#23dc00"/>
    <path id="Path_2984" data-name="Path 2984" d="M271.032,318.371a.614.614,0,0,1,0-1.228l1.874,0h0a.614.614,0,0,1,0,1.228l-1.874,0Z" transform="translate(-173.733 -279.533)" fill="#23dc00"/>
    <path id="Path_2985" data-name="Path 2985" d="M280.892,341.33l-1.66,0" transform="translate(-181.723 -301.461)" fill="#23dc00"/>
    <path id="Path_2986" data-name="Path 2986" d="M273.282,336a.614.614,0,0,1,0-1.228l1.66,0h0a.614.614,0,0,1,0,1.228l-1.66,0Z" transform="translate(-175.773 -295.511)" fill="#23dc00"/>
    <path id="Path_2987" data-name="Path 2987" d="M387.3,249.372h0a.614.614,0,0,1-.613-.615l.005-2.5a.614.614,0,0,1,.614-.613h0a.614.614,0,0,1,.613.615l-.005,2.5A.614.614,0,0,1,387.3,249.372Z" transform="translate(-279.124 -214.73)" fill="#23dc00"/>
    <path id="Path_2988" data-name="Path 2988" d="M387.572,260.969a.614.614,0,0,1-.439-1.043l1.269-1.3a.614.614,0,0,1,.879.858l-1.269,1.3A.614.614,0,0,1,387.572,260.969Z" transform="translate(-279.369 -226.326)" fill="#23dc00"/>
    <path id="Path_2989" data-name="Path 2989" d="M374.8,261.022a.612.612,0,0,1-.44-.185l-1.264-1.3a.614.614,0,1,1,.879-.857l1.264,1.3a.614.614,0,0,1-.439,1.043Z" transform="translate(-266.646 -226.379)" fill="#23dc00"/>
    <path id="Path_2990" data-name="Path 2990" d="M358.272,297.484a.614.614,0,0,1,0-1.228l1.794,0h0a.614.614,0,0,1,0,1.228l-1.794,0Z" transform="translate(-252.81 -260.601)" fill="#23dc00"/>
    <path id="Path_2991" data-name="Path 2991" d="M357.372,318.371a.614.614,0,0,1,0-1.228l1.874,0h0a.614.614,0,0,1,0,1.228l-1.874,0Z" transform="translate(-251.995 -279.533)" fill="#23dc00"/>
    <path id="Path_2992" data-name="Path 2992" d="M367.238,341.33l-1.66,0" transform="translate(-259.99 -301.461)" fill="#23dc00"/>
    <path id="Path_2993" data-name="Path 2993" d="M359.622,336a.614.614,0,0,1,0-1.228l1.66,0h0a.614.614,0,0,1,0,1.228l-1.66,0Z" transform="translate(-254.034 -295.511)" fill="#23dc00"/>
    <path id="Path_2994" data-name="Path 2994" d="M266.105,339.82H248.162a.614.614,0,0,1-.614-.614v-3.488a.614.614,0,0,1,.614-.614H266.1a.614.614,0,0,1,.614.614v3.488a.614.614,0,0,1-.614.614Zm-17.329-1.228h16.715v-2.26H248.776Z" transform="translate(-153.003 -295.817)" fill="#23dc00"/>
    <path id="Path_2995" data-name="Path 2995" d="M276.082,279.456a.613.613,0,0,1-.6-.734,12.266,12.266,0,0,0,.261-2.245,7.015,7.015,0,0,0-.1-1.17,2.1,2.1,0,0,0-2.1-1.723h0a2.126,2.126,0,0,0-2.113,1.737,7,7,0,0,0-.105,1.171,12.272,12.272,0,0,0,.249,2.233.614.614,0,1,1-1.205.234,13.5,13.5,0,0,1-.272-2.47,8.1,8.1,0,0,1,.124-1.379,3.353,3.353,0,0,1,3.32-2.753h.007a3.322,3.322,0,0,1,3.306,2.743,8.167,8.167,0,0,1,.118,1.379,13.5,13.5,0,0,1-.284,2.482.616.616,0,0,1-.6.494Z" transform="translate(-173.44 -238.941)" fill="#23dc00"/>
    <path id="Path_2996" data-name="Path 2996" d="M344.052,337.857a.614.614,0,0,1-.614-.614v-1.526a.614.614,0,0,1,1.228,0v1.526A.614.614,0,0,1,344.052,337.857Z" transform="translate(-239.921 -295.816)" fill="#23dc00"/>
    <path id="Path_2997" data-name="Path 2997" d="M273.488,383.488H257.242a.614.614,0,0,1-.614-.614V373a.614.614,0,0,1,.614-.614h16.247a.614.614,0,0,1,.614.614v9.875a.615.615,0,0,1-.614.614Zm-15.633-1.228h15.019v-8.647H257.855Z" transform="translate(-161.234 -329.61)" fill="#23dc00"/>
    <path id="Path_2998" data-name="Path 2998" d="M362.432,279.452a.613.613,0,0,1-.6-.734,12.271,12.271,0,0,0,.261-2.245,7,7,0,0,0-.1-1.17,2.1,2.1,0,0,0-2.1-1.723h0a2.126,2.126,0,0,0-2.113,1.737,6.963,6.963,0,0,0-.105,1.17,12.27,12.27,0,0,0,.249,2.234.614.614,0,1,1-1.205.234,13.506,13.506,0,0,1-.272-2.47,8.113,8.113,0,0,1,.124-1.38,3.352,3.352,0,0,1,3.32-2.753h.007A3.322,3.322,0,0,1,363.2,275.1a8.15,8.15,0,0,1,.118,1.379,13.506,13.506,0,0,1-.284,2.483.616.616,0,0,1-.6.495Z" transform="translate(-251.71 -238.937)" fill="#23dc00"/>
  </g>
</svg>
