<svg xmlns="http://www.w3.org/2000/svg" width="50.264" height="50.264" viewBox="0 0 50.264 50.264">
  <g id="hygienic" transform="translate(-77.356 -17.5)">
    <path id="Path_2938" data-name="Path 2938" d="M350,52.5v1.675a20.128,20.128,0,0,1,20.1,20.105h1.675A21.806,21.806,0,0,0,350,52.5Z" transform="translate(-247.509 -31.646)" fill="#23dc00"/>
    <path id="Path_2939" data-name="Path 2939" d="M124.175,280H122.5a21.806,21.806,0,0,0,21.781,21.781v-1.675A20.128,20.128,0,0,1,124.176,280Z" transform="translate(-41.793 -237.369)" fill="#23dc00"/>
    <path id="Path_2940" data-name="Path 2940" d="M315,52.5h1.675v1.675H315Z" transform="translate(-215.863 -31.649)" fill="#23dc00"/>
    <path id="Path_2941" data-name="Path 2941" d="M112.629,17.5a25.161,25.161,0,1,0,17.762,7.369A25.133,25.133,0,0,0,112.629,17.5Zm0,48.588a23.482,23.482,0,1,1,16.578-6.878,23.457,23.457,0,0,1-16.578,6.878Z" transform="translate(-10.141)" fill="#23dc00"/>
    <path id="Path_2942" data-name="Path 2942" d="M162.462,106.3a3.322,3.322,0,0,0,1.465-.335,4.183,4.183,0,1,0,4.4-6.283V99.6a3.351,3.351,0,1,0-6.7,0v.105a3.351,3.351,0,0,0,.838,6.6Zm-.024-5.026c.021,0,.11.013.131.014h0a.819.819,0,0,0,.723-.335.837.837,0,0,0,.116-.788,1.65,1.65,0,0,1-.109-.567,1.675,1.675,0,1,1,3.351,0c0,.029-.007.059-.008.089a4.191,4.191,0,0,0-2.3,1.33l1.257,1.108a2.508,2.508,0,0,1,1.752-.838c.038,0,.1-.007.158-.014a2.513,2.513,0,1,1-2.429,3.183.837.837,0,0,0-.6-.586.8.8,0,0,0-.2-.026.839.839,0,0,0-.6.259,1.675,1.675,0,1,1-1.233-2.829Z" transform="translate(-74.895 -71.211)" fill="#23dc00"/>
    <path id="Path_2943" data-name="Path 2943" d="M440.25,318.292v-.105h0a3.351,3.351,0,0,0-6.7,0v.084a4.189,4.189,0,1,0,4.4,6.283,3.315,3.315,0,0,0,1.464.335,3.351,3.351,0,0,0,.838-6.6Zm-.838,4.921h0a1.663,1.663,0,0,1-1.208-.52.838.838,0,0,0-1.411.355,2.506,2.506,0,1,1-2.435-3.183c.028,0,.122.014.148.015h.012a2.513,2.513,0,0,1,1.753.838l1.257-1.108h0a4.187,4.187,0,0,0-2.3-1.33c0-.029-.008-.059-.008-.089h0a1.675,1.675,0,0,1,3.351,0,1.656,1.656,0,0,1-.109.568.839.839,0,0,0,.117.788.825.825,0,0,0,.722.335c.021,0,.084-.012.108-.014a1.675,1.675,0,1,1,0,3.351Z" transform="translate(-320.015 -268.869)" fill="#23dc00"/>
    <path id="Path_2944" data-name="Path 2944" d="M292.566,240.439h-3.351v-3.351a.838.838,0,0,0-.838-.838h-3.351a.838.838,0,0,0-.838.838v3.351h-3.351a.838.838,0,0,0-.838.838v3.351a.838.838,0,0,0,.838.838h3.351v3.351a.838.838,0,0,0,.838.838h3.351a.838.838,0,0,0,.838-.838v-3.351h3.351a.838.838,0,0,0,.838-.838v-3.351a.838.838,0,0,0-.838-.838Zm-.838,3.351h-3.351a.838.838,0,0,0-.838.838v3.351h-1.675v-3.351a.838.838,0,0,0-.838-.838h-3.351v-1.675h3.351a.838.838,0,0,0,.838-.838v-3.351h1.675v3.351a.838.838,0,0,0,.838.838h3.351Z" transform="translate(-184.214 -197.807)" fill="#23dc00"/>
    <path id="Path_2945" data-name="Path 2945" d="M265.105,163.833c0-5.376-9.076-14.452-9.466-14.835a.837.837,0,0,0-1.181,0c-.382.384-9.458,9.46-9.458,14.835a10.053,10.053,0,1,0,20.105,0Zm-10.053,8.377a8.386,8.386,0,0,1-8.377-8.377c0-3.609,5.583-10.147,8.377-13.046,2.794,2.9,8.377,9.438,8.377,13.046a8.386,8.386,0,0,1-8.377,8.377Z" transform="translate(-152.565 -118.688)" fill="#23dc00"/>
    <path id="Path_2946" data-name="Path 2946" d="M152.1,225.452a3.35,3.35,0,1,0-2.37-.981A3.352,3.352,0,0,0,152.1,225.452Zm0-5.026a1.675,1.675,0,1,1-1.185.491A1.676,1.676,0,0,1,152.1,220.425Z" transform="translate(-65.529 -181.983)" fill="#23dc00"/>
    <path id="Path_2947" data-name="Path 2947" d="M472.5,230.851a3.35,3.35,0,1,0,.981-2.37A3.352,3.352,0,0,0,472.5,230.851Zm5.026,0a1.675,1.675,0,1,1-.491-1.185A1.676,1.676,0,0,1,477.526,230.851Z" transform="translate(-358.284 -189.895)" fill="#23dc00"/>
    <path id="Path_2948" data-name="Path 2948" d="M378.764,437.5a2.513,2.513,0,1,0,1.777.736A2.513,2.513,0,0,0,378.764,437.5Zm0,3.351a.838.838,0,1,1,.592-.245A.837.837,0,0,1,378.764,440.851Z" transform="translate(-271.249 -379.79)" fill="#23dc00"/>
    <path id="Path_2949" data-name="Path 2949" d="M363.777,98.764a2.513,2.513,0,1,0-.736,1.777A2.514,2.514,0,0,0,363.777,98.764Zm-3.351,0a.838.838,0,1,1,.838.838A.837.837,0,0,1,360.426,98.764Z" transform="translate(-255.425 -71.211)" fill="#23dc00"/>
    <path id="Path_2950" data-name="Path 2950" d="M427.539,140h-3.351A4.193,4.193,0,0,0,420,144.189v1.675a.838.838,0,0,0,.838.838h3.351a4.193,4.193,0,0,0,4.189-4.189v-1.675a.838.838,0,0,0-.838-.838Zm-.838,2.513a2.513,2.513,0,0,1-2.513,2.513h-.838l1.34-1.005-1.005-1.34-2.01,1.508a2.513,2.513,0,0,1,2.513-2.513H426.7Z" transform="translate(-310.81 -110.772)" fill="#23dc00"/>
    <path id="Path_2951" data-name="Path 2951" d="M192.5,368.338v1.675a4.193,4.193,0,0,0,4.189,4.189h3.351a.838.838,0,0,0,.838-.838v-1.675a4.193,4.193,0,0,0-4.189-4.189h-3.351A.838.838,0,0,0,192.5,368.338Zm1.675.838h2.513a2.513,2.513,0,0,1,2.513,2.513l-2.01-1.508-1.005,1.34,1.34,1.005h-.838a2.513,2.513,0,0,1-2.513-2.513Z" transform="translate(-105.091 -316.491)" fill="#23dc00"/>
    <path id="Path_2952" data-name="Path 2952" d="M210,315h1.675v1.675H210Z" transform="translate(-120.915 -269.018)" fill="#23dc00"/>
    <path id="Path_2953" data-name="Path 2953" d="M323.75,428.75h1.675v1.675H323.75Z" transform="translate(-223.775 -371.877)" fill="#23dc00"/>
  </g>
</svg>
