<svg xmlns="http://www.w3.org/2000/svg" width="63.428" height="104.497" viewBox="0 0 63.428 104.497">
  <g id="leaf" transform="translate(-201.202 -34.836)">
    <path id="Path_2867" data-name="Path 2867" d="M255.286,85.672c11.469,9.475,9.64,15.457,8.256,22.274,2.6-2.659,5.042-6.482,5.042-14.794,9.392,5.568,10.639,12.2,9.308,25.267,6.816-2.993,8.311-7.314,8.311-7.314s2,1.829,2.161,8.976-3.823,13.463-3.823,13.463a17.471,17.471,0,0,0,7.314-.831c1.163,3.324-1,6.981-1.829,11.968,3.989-7.48,3.49-11.3,3.159-15.625-.666,1.829-4.82,2.826-5.985,2.16,4.821-11.469,3.158-17.287-2-27.258.666,2.327-2.455,8.9-4.782,9.23,1.291-11.224-3.2-17.54-8.183-20.865a40.845,40.845,0,0,1-5.651-4.488s.331,4.82-1.33,5.817c-1.33-6.317-9.308-11.968-19.448-20.944a23.2,23.2,0,0,1-8.048-15.094c.571,12.264,7.334,19.644,17.523,28.062Z" transform="translate(-28.774 -17.925)" fill="#23dc00"/>
    <path id="Path_2868" data-name="Path 2868" d="M237.385,34.836a18.013,18.013,0,0,0-.07,4.852A39.8,39.8,0,0,1,237.385,34.836Z" transform="translate(-28.326)" fill="#23dc00"/>
    <path id="Path_2869" data-name="Path 2869" d="M233.493,138.347s2.161-2.827,3.255-4.156c-8.215.332-14.225-3.325-17.217-6.981,2.659,0,6.317-3.159,8.478-6.149-17.951-.332-20.778-14.96-20.778-14.96a15.409,15.409,0,0,0,8.644-1.662c-7.147-6.482-10.306-20.944-12.133-31.082s2.99-27.593,2.99-27.593c-2.327,6.149-7.148,19.614-4.987,33.076,2.327,17.619,8.146,24.6,8.146,24.6a14.135,14.135,0,0,1-8.146-1,8.654,8.654,0,0,1,1.33,2.493c3.325,12.133,18.45,18.284,18.45,18.284s-2.16,1.5-8.146,2.659c1.5.5,14.793,9.974,19.448,10.306,0,0-1.829,1.829-2.993,2.992,2.161.166,13.8,4.321,19.614,3.657-14.293-1-15.955-4.486-15.955-4.486Z" transform="translate(0 -8.599)" fill="#23dc00"/>
    <path id="Path_2870" data-name="Path 2870" d="M277.1,232.77s6.538,39.505,46.209,62.333c-19.726-19.5-33.325-28.948-46.209-62.333Z" transform="translate(-59.73 -155.769)" fill="#23dc00"/>
  </g>
</svg>
