<svg xmlns="http://www.w3.org/2000/svg" width="64" height="64" viewBox="0 0 64 64">
  <g id="need-help" transform="translate(-20 1)">
    <g id="Ellipse_136" data-name="Ellipse 136" transform="translate(20 -1)" fill="none" stroke="#48e22b" stroke-width="2">
      <circle cx="32" cy="32" r="32" stroke="none"/>
      <circle cx="32" cy="32" r="31" fill="none"/>
    </g>
    <path id="support" d="M146.5,29.93a7.893,7.893,0,0,1-3.421,6.5,9.18,9.18,0,0,0,3.337,3.406l.084-.079a3.385,3.385,0,1,1,2.243,5.926h-.218a3.392,3.392,0,0,1-3.164-3.595,11.728,11.728,0,0,1-4.505-4.595,7.892,7.892,0,0,1-6.436-14.254,128.277,128.277,0,0,1,.822-13.417,1.237,1.237,0,0,1,.96-1.045,16.675,16.675,0,0,1,2.421-.342,17.142,17.142,0,0,1,3.575.129,1.238,1.238,0,0,1,1.03,1.411A114.947,114.947,0,0,0,142.337,23a7.922,7.922,0,0,1,4.159,6.931Zm2.179,13.288h0a.911.911,0,1,0-.635-.315.911.911,0,0,0,.635.315ZM140.6,10.893a14.679,14.679,0,0,0-1.837,0c-.391.025-.787.069-1.183.134-.376,3.213-.6,7.6-.673,11.18a7.534,7.534,0,0,1,2.97-.074c.084-3.525.327-7.952.723-11.239Zm-1.98,13.591a5.446,5.446,0,1,0,3.851,1.6A5.448,5.448,0,0,0,138.618,24.484Zm22.5,13.794a2.732,2.732,0,0,0,0-2.213L158.284,29.7h0a7.059,7.059,0,0,1-.614-2.892,18.319,18.319,0,0,0-10.313-16.537,1.238,1.238,0,0,0-1.089,2.223,15.843,15.843,0,0,1,8.912,14.313,9.513,9.513,0,0,0,.832,3.9l2.847,6.362a.253.253,0,0,1-.154.342l-2.664.881a1.237,1.237,0,0,0-.846,1.173V46a1.851,1.851,0,0,1-1.852,1.852h-6.649a1.238,1.238,0,0,0-1.188.891l-1.381,4.837h0a.5.5,0,0,1-.589.327l-17.789-5.06a.5.5,0,0,1-.336-.6l2.634-9.213a1.237,1.237,0,0,0-.317-1.183,15.8,15.8,0,0,1-4.406-12.012A16.017,16.017,0,0,1,132.073,12.6a1.239,1.239,0,0,0-1.124-2.208,18.5,18.5,0,0,0-10.081,15.284,18.243,18.243,0,0,0,4.6,13.368L123.032,47.6h0a2.971,2.971,0,0,0,2.025,3.619l17.8,5.085a2.971,2.971,0,0,0,3.649-2.03l1.124-3.961h5.709a4.332,4.332,0,0,0,4.327-4.327v-5.62l1.817-.6h0a2.734,2.734,0,0,0,1.639-1.491Z" transform="translate(-88.829 -1.393)" fill="#48e22b"/>
  </g>
</svg>
