<svg xmlns="http://www.w3.org/2000/svg" width="51.957" height="51.957" viewBox="0 0 51.957 51.957">
  <g id="organic" transform="translate(-106.55 -35.852)">
    <path id="Path_2895" data-name="Path 2895" d="M224.4,95.192l-.739.172a24.338,24.338,0,0,0-7.456,3.524V89.28a3.81,3.81,0,0,0-1.536-3.054V83.982h.495a1.989,1.989,0,0,0,0-3.978h-.495V74.652H202.3V80h-.495a1.989,1.989,0,0,0,0,3.978h.495v2.244a3.81,3.81,0,0,0-1.536,3.054v9.964a24.4,24.4,0,0,0-7.943-3.878l-.74-.172-.158.743c-1.326,6.2-.577,11.423,2.224,15.514,4.329,6.322,11.936,7.61,12.258,7.662l.687.11.157-.678c2.069-8.893-1.1-14.567-4.994-18.076V98.5h12.461v1.538c-4.107,3.47-7.637,9.244-5.482,18.507l.158.678.686-.11c.322-.052,7.929-1.34,12.258-7.662,2.8-4.091,3.549-9.311,2.224-15.514Zm-29.034,15.4c-2.272-3.325-3.051-7.513-2.326-12.465L204.918,117.2a17.948,17.948,0,0,1-9.547-6.608Zm10.782,5.771L194.341,97.391C198.528,98.913,208.106,103.82,206.152,116.366Zm8.566-22.01h-6.38V91.747h6.38ZM213.182,80H207.27V76.142h5.912Zm-9.389-3.861h1.986V80h-1.986Zm-2.484,5.85a.5.5,0,0,1,.5-.5h13.361a.5.5,0,1,1,0,1H201.807A.5.5,0,0,1,201.309,81.992Zm2.484,1.99h9.389v1.564a3.815,3.815,0,0,0-.791-.084h-7.807a3.791,3.791,0,0,0-.791.084Zm-1.536,13.025V89.28a2.33,2.33,0,0,1,2.327-2.327h7.807a2.33,2.33,0,0,1,2.327,2.327v.977h-7.87v5.591h7.87v1.16Zm19.886.387-11.807,18.97c-1.945-12.518,7.62-17.438,11.807-18.97Zm-1.026,13.2a17.955,17.955,0,0,1-9.546,6.608l11.872-19.074c.724,4.953-.054,9.14-2.326,12.465Z" transform="translate(-75.715 -34.668)" fill="#23dc00"/>
    <path id="Path_2896" data-name="Path 2896" d="M132.528,35.852A25.978,25.978,0,1,0,158.507,61.83,26.008,26.008,0,0,0,132.528,35.852Zm0,50.467A24.488,24.488,0,1,1,157.016,61.83,24.515,24.515,0,0,1,132.528,86.319Z" fill="#23dc00"/>
    <path id="Path_2897" data-name="Path 2897" d="M499.642,144.52l-1.134.968a20.717,20.717,0,0,1,1.544,24.826l1.245.821a22.211,22.211,0,0,0-1.655-26.615Z" transform="translate(-350.22 -97.096)" fill="#23dc00"/>
    <path id="Path_2898" data-name="Path 2898" d="M148.445,145.488l-1.134-.968a22.209,22.209,0,0,0-1.516,26.822l1.235-.835a20.719,20.719,0,0,1,1.414-25.019Z" transform="translate(-31.678 -97.096)" fill="#23dc00"/>
  </g>
</svg>
