<svg xmlns="http://www.w3.org/2000/svg" width="50.667" height="38.483" viewBox="0 0 50.667 38.483">
  <path id="qotes-icon" d="M29.634,52.626q-3.419-3.551-3.417-9.827,0-13.665,18.406-25.1l1.255,1.949Q32.908,28.155,32.91,36.66c0,.068.011.124.011.189A10.689,10.689,0,0,1,48.138,51.783c-.127.167-.295.319-.433.48-.067.071-.128.142-.2.21a10.1,10.1,0,0,1-.8.85,12.194,12.194,0,0,1-8.436,2.86,11.463,11.463,0,0,1-8.642-3.557Zm-26.213,0Q0,49.073.005,42.8q0-13.661,18.4-25.1l1.256,1.95C11.2,25.205,6.907,30.758,6.731,36.309A10.651,10.651,0,0,1,23.7,46.337c0,.033.005.055.005.085a8.922,8.922,0,0,1-3.207,6.9,12.2,12.2,0,0,1-8.436,2.858,11.478,11.478,0,0,1-8.644-3.555Z" transform="translate(-0.005 -17.7)" fill="#a5a5a5"/>
</svg>
