<svg xmlns="http://www.w3.org/2000/svg" width="50.863" height="50.864" viewBox="0 0 50.863 50.864">
  <g id="safe" transform="translate(-73.473 -8.749)">
    <path id="Path_2965" data-name="Path 2965" d="M113.214,25.447c0-8.192-8.121-16.134-8.466-16.467a.823.823,0,0,0-1.143,0c-.346.334-8.466,8.276-8.466,16.467a9.052,9.052,0,1,0,18.075,0Zm-9.038,7.913a7.676,7.676,0,0,1-7.394-7.913c0-6.3,5.569-12.753,7.394-14.7,1.826,1.945,7.394,8.394,7.394,14.7A7.676,7.676,0,0,1,104.176,33.36Zm23.3-18.041a3.275,3.275,0,0,0-1.926-1.991,3.353,3.353,0,0,0-4.386,4.228,19.437,19.437,0,0,1,.809,10.684,26.209,26.209,0,0,0-.392-3.627,3.4,3.4,0,0,0-6.754.771c.135,1.969-.321,5.975-4.886,10.686-4.339,4.482-5.075,11.468-4.928,16.541h0a7.22,7.22,0,0,0,14.07,2.053,17.376,17.376,0,0,1,3.965-6.786c6.59-6.731,8.493-20.729,4.428-32.561Zm-5.6,31.413a18.978,18.978,0,0,0-4.35,7.417,5.576,5.576,0,0,1-10.867-1.585c-.138-4.757.525-11.282,4.466-15.353,5.008-5.168,5.5-9.7,5.345-11.939h0a1.731,1.731,0,0,1,1.213-1.757,1.778,1.778,0,0,1,.549-.089,1.732,1.732,0,0,1,.893.25,1.792,1.792,0,0,1,.843,1.225,22.133,22.133,0,0,1,.03,8h0v0a14.013,14.013,0,0,1-3.692,7.27.821.821,0,1,0,1.178,1.144,15.6,15.6,0,0,0,4.1-7.957c3.83-6.085,2.367-12.842,1.14-16.344a1.7,1.7,0,0,1,.787-2.063,1.722,1.722,0,0,1,1.452-.094,1.619,1.619,0,0,1,.966.994c4.419,12.859,1.212,25.507-4.047,30.882ZM93.526,25.383a3.4,3.4,0,0,0-6.754-.771,26.208,26.208,0,0,0-.392,3.627,19.436,19.436,0,0,1,.809-10.684,3.336,3.336,0,0,0-1.551-4.045,3.37,3.37,0,0,0-2.835-.183,3.278,3.278,0,0,0-1.926,1.992c-4.065,11.831-2.162,25.829,4.428,32.56a17.371,17.371,0,0,1,3.965,6.786,7.22,7.22,0,0,0,14.07-2.053c.147-5.073-.589-12.059-4.928-16.541-4.565-4.712-5.021-8.718-4.886-10.687Zm8.171,27.18h0A5.577,5.577,0,0,1,90.83,54.149a18.981,18.981,0,0,0-4.35-7.417c-5.26-5.373-8.466-18.023-4.049-30.88a1.622,1.622,0,0,1,.967-1,1.724,1.724,0,0,1,1.452.094,1.7,1.7,0,0,1,.787,2.063c-1.225,3.5-2.689,10.258,1.141,16.344a15.6,15.6,0,0,0,4.1,7.956.821.821,0,0,0,1.178-1.144A14.014,14.014,0,0,1,88.36,32.9v0h0a22.134,22.134,0,0,1,.03-8,1.791,1.791,0,0,1,.843-1.224,1.757,1.757,0,0,1,2.654,1.595c-.153,2.241.338,6.771,5.345,11.939,3.941,4.071,4.6,10.6,4.466,15.353Z" transform="translate(-5.274)" fill="#23dc00"/>
  </g>
</svg>
