<svg xmlns="http://www.w3.org/2000/svg" width="64" height="64" viewBox="0 0 64 64">
  <g id="support-center" transform="translate(170.894 193)">
    <g id="Ellipse_136" data-name="Ellipse 136" transform="translate(-170.894 -193)" fill="none" stroke="#48e22b" stroke-width="2">
      <circle cx="32" cy="32" r="32" stroke="none"/>
      <circle cx="32" cy="32" r="31" fill="none"/>
    </g>
    <path id="Path_3017" data-name="Path 3017" d="M145.449,54.631h-.465c-.11-10.248-8.083-18.551-17.88-18.551s-17.77,8.3-17.88,18.551h-.465a3.127,3.127,0,0,0-3.124,3.124v4.872a4.181,4.181,0,0,0,4.1,4.279,4.057,4.057,0,0,0,2.816-1.125c1.988-1.886,1.028-4.134,1.278-8.025a3.117,3.117,0,0,0-2.82-3.093c.094-9.275,7.273-16.792,16.092-16.792s16,7.517,16.092,16.792a3.117,3.117,0,0,0-2.82,3.093v4.872a4.181,4.181,0,0,0,4.1,4.279,4.1,4.1,0,0,0,4.094-4.1V57.754a3.127,3.127,0,0,0-3.124-3.124Zm-33.406,3.124v5.053a2.311,2.311,0,1,1-4.617-.181V57.755a1.336,1.336,0,0,1,1.335-1.335h1.948a1.335,1.335,0,0,1,1.335,1.335Zm34.021,6.728a2.329,2.329,0,0,1-3.9-1.856V57.755c0-1.913,2.613-1.213,3.283-1.335a1.336,1.336,0,0,1,1.335,1.335c-.178,4.373.465,5.6-.72,6.728Z" transform="translate(-265.53 -218.08)" fill="#48e22b"/>
    <path id="Path_3018" data-name="Path 3018" d="M238.344,126.91c-12,0-15.026,16.9-3.578,20.943v4.038l-4.171,6.076a2.412,2.412,0,0,0,1.988,3.775c10.431-.389,12.486.938,13.656-1.288,1.127-2.138-1.137-3.347-4.317-8.563v-4.038c11.444-4.043,8.432-20.943-3.578-20.943Zm6.275,32.071a.621.621,0,0,1-.513.973c-10.954-.212-11.7.386-12.074-.333a.607.607,0,0,1,.037-.64c4.522-6.684,4.486-6.315,4.486-6.811v-3.76a24.368,24.368,0,0,0,3.578,0c.079,5.888-1.033,2.144,4.486,10.57Zm-5.226-12.359h-2.1a9,9,0,1,1,2.1,0Z" transform="translate(-376.77 -300.93)" fill="#48e22b"/>
    <path id="Path_3019" data-name="Path 3019" d="M305.187,200.52a4.317,4.317,0,1,0,4.316,4.317A4.322,4.322,0,0,0,305.187,200.52Zm0,6.844c-3.345,0-3.34-5.055,0-5.055S308.527,207.364,305.187,207.364Z" transform="translate(-443.613 -368.074)" fill="#48e22b"/>
  </g>
</svg>
