<svg xmlns="http://www.w3.org/2000/svg" width="50.233" height="52.69" viewBox="0 0 50.233 52.69">
  <g id="work-life" transform="translate(-148.75 -67.381)">
    <path id="Path_2954" data-name="Path 2954" d="M429.808,414.409a1.094,1.094,0,0,0,.449-.1,26.879,26.879,0,0,0,9.437-7.246,1.078,1.078,0,0,0-.139-1.507,1.109,1.109,0,0,0-1.507.139c0,.01,0,.01-.01.01a24.711,24.711,0,0,1-8.679,6.658,1.111,1.111,0,0,0-.557.609,1.069,1.069,0,0,0,.032.812,1.057,1.057,0,0,0,.973.62Z" transform="translate(-245.788 -296.667)" fill="#23dc00"/>
    <path id="Path_2955" data-name="Path 2955" d="M429.354,82.381a24.676,24.676,0,0,1,9.459,7.642,1.054,1.054,0,0,0,.855.428,1.041,1.041,0,0,0,.642-.2,1.086,1.086,0,0,0,.224-1.5,26.921,26.921,0,0,0-10.282-8.315,1.094,1.094,0,0,0-1.421.524,1.074,1.074,0,0,0,.523,1.421Z" transform="translate(-245.783 -11.378)" fill="#23dc00"/>
    <path id="Path_2956" data-name="Path 2956" d="M523.117,377.151a1.081,1.081,0,0,0,.4,1.464,1.022,1.022,0,0,0,.534.139,1.079,1.079,0,0,0,.919-.524,1.028,1.028,0,0,0,.107-.812,1.072,1.072,0,0,0-.491-.652,1.11,1.11,0,0,0-1.464.385Z" transform="translate(-328.516 -271.476)" fill="#23dc00"/>
    <path id="Path_2957" data-name="Path 2957" d="M180.609,89.425a1.065,1.065,0,0,0,.824-.385,24.679,24.679,0,0,1,8.689-6.669,1.111,1.111,0,0,0,.556-.609,1.064,1.064,0,0,0-1.442-1.336,26.814,26.814,0,0,0-9.448,7.246,1.1,1.1,0,0,0-.246.78,1.066,1.066,0,0,0,.385.727,1.044,1.044,0,0,0,.682.246Z" transform="translate(-27.028 -11.367)" fill="#23dc00"/>
    <path id="Path_2958" data-name="Path 2958" d="M184.306,405.031a24.722,24.722,0,0,1-9.449-7.642,1.092,1.092,0,0,0-1.5-.214,1.05,1.05,0,0,0-.428.695,1.089,1.089,0,0,0,.2.791,26.921,26.921,0,0,0,10.282,8.315,1.069,1.069,0,0,0,.908-1.934c-.01,0-.01-.011-.021-.011Z" transform="translate(-21.223 -289.331)" fill="#23dc00"/>
    <path id="Path_2959" data-name="Path 2959" d="M160.046,167.985a1.031,1.031,0,0,0,.534.15,1.071,1.071,0,0,0,1.038-1.346,1.065,1.065,0,0,0-.5-.652,1.1,1.1,0,0,0-1.464.385v.021a1.051,1.051,0,0,0,.4,1.442Z" transform="translate(-9.447 -86.572)" fill="#23dc00"/>
    <path id="Path_2960" data-name="Path 2960" d="M150.888,180.585v2.764a9.619,9.619,0,1,0,19.238,0v-2.764l1.825-1.825a1.064,1.064,0,0,0,.313-.755v-2.138a7.491,7.491,0,0,0-7.481-7.482h-1.252a3.213,3.213,0,0,0-3.024-2.138,11.77,11.77,0,0,0-11.757,11.757,1.066,1.066,0,0,0,.313.756Zm17.1,2.764a7.481,7.481,0,1,1-14.963,0v-3.206h3.206a7.485,7.485,0,0,0,6.413-3.631,7.5,7.5,0,0,0,5.344,3.555Zm-7.481-14.963a1.07,1.07,0,0,1,1.069,1.069,1.069,1.069,0,0,0,1.069,1.069h2.138a5.35,5.35,0,0,1,5.344,5.344v1.7l-.577.577a1.032,1.032,0,0,0-.491-.135,5.35,5.35,0,0,1-5.344-5.344,1.069,1.069,0,1,0-2.138,0,5.35,5.35,0,0,1-5.344,5.344h-4.275a1.037,1.037,0,0,0-.491.135l-.567-.567a9.631,9.631,0,0,1,9.609-9.186Z" transform="translate(0 -86.791)" fill="#23dc00"/>
    <path id="Path_2961" data-name="Path 2961" d="M395.488,221.757v-4.275a1.069,1.069,0,0,0-1.069-1.069,5.35,5.35,0,0,1-5.344-5.344,1.069,1.069,0,1,0-2.138,0,5.35,5.35,0,0,1-5.344,5.344h-4.275a1.069,1.069,0,0,0-1.069,1.069v4.275a9.619,9.619,0,1,0,19.238,0Zm-17.1,0V218.55h3.206a7.485,7.485,0,0,0,6.413-3.631,7.5,7.5,0,0,0,5.344,3.555v3.282a7.481,7.481,0,1,1-14.963,0Z" transform="translate(-199.711 -125.199)" fill="#23dc00"/>
    <path id="Path_2962" data-name="Path 2962" d="M360.688,166.25A10.7,10.7,0,0,0,350,176.938v8.55a1.069,1.069,0,0,0,2.138,0v-8.55a8.56,8.56,0,0,1,8.55-8.55h4.275a8.56,8.56,0,0,1,8.55,8.55v10.688a1.069,1.069,0,1,0,2.138,0V176.938a10.7,10.7,0,0,0-10.688-10.688Z" transform="translate(-176.667 -86.793)" fill="#23dc00"/>
    <path id="Path_2963" data-name="Path 2963" d="M288.55,332.5a1.069,1.069,0,0,0-1.069,1.069v2.211a8.555,8.555,0,1,0,3.335.241l.627-.627a1.068,1.068,0,1,0-1.511-1.511l-.313.313v-.626a1.069,1.069,0,0,0-1.069-1.069Zm6.413,11.757a6.413,6.413,0,1,1-9.6-5.556c-.005.071-.017.14-.017.212a3.21,3.21,0,0,0,3.206,3.206,1.069,1.069,0,0,0,0-2.138,1.069,1.069,0,0,1-.006-2.138h.006a6.419,6.419,0,0,1,6.413,6.413Z" transform="translate(-115.218 -232.736)" fill="#23dc00"/>
    <path id="Path_2964" data-name="Path 2964" d="M285.431,83.464a1.069,1.069,0,0,0,1.512,0l6.6-6.6a5.344,5.344,0,0,0,0-7.557l-.368-.368a5.354,5.354,0,0,0-6.984-.5,5.356,5.356,0,0,0-6.987.5l-.365.366a5.342,5.342,0,0,0,0,7.557Zm-5.084-12.642.365-.366a3.211,3.211,0,0,1,4.536,0l.184.183a1.068,1.068,0,0,0,.754.312h0a1.064,1.064,0,0,0,.756-.314l.182-.182a3.21,3.21,0,0,1,4.534,0l.366.366h0a3.206,3.206,0,0,1,0,4.535l-5.84,5.84-5.841-5.84a3.2,3.2,0,0,1,0-4.534Z" transform="translate(-112.82 0)" fill="#23dc00"/>
  </g>
</svg>
